<svg xmlns="http://www.w3.org/2000/svg" version="1.1" xmlns:xlink="http://www.w3.org/1999/xlink" width="512" height="512" x="0" y="0" viewBox="0 0 511 511.999" style="enable-background:new 0 0 512 512" xml:space="preserve" class=""><g><path fill="#169b62" d="M217.48 346.23c-100.667 178.122-1.921 3.399-86.738 153.446-3.832 6.777-13.765 6.254-16.87-.883L89.425 442.57a9.448 9.448 0 0 0-9.895-5.59l-60.777 8.036c-7.723 1.023-13.293-7.22-9.461-13.996 56.3-99.594 28.125-49.75 86.738-153.438l60.723 34.328zM453.41 445.016l-60.773-8.036a9.442 9.442 0 0 0-9.895 5.59l-24.445 56.223c-3.11 7.137-13.043 7.66-16.875.883l-44.785-79.215-13.575-24.024-28.378-50.207 60.726-34.32 60.723-34.328L462.87 431.02c3.832 6.777-1.738 15.02-9.46 13.996zm0 0" opacity="1" data-original="#169b62" class=""></path><path fill="#127d4f" d="m156.754 311.91 60.726 34.32-41.992 74.301c-34.199 1.305-67.914-25.754-65.843-66.258.707-13.18-10.153-24.554-23.852-23.847-6.484.308-12.738-.324-18.629-1.774C106.86 258.43 93 282.95 96.031 277.582zM405.012 328.676c-5.93 1.457-12.196 2.078-18.64 1.75-13.345-.707-24.536 10.304-23.852 23.847.863 17.59-5.149 34.059-16.934 46.438-12.941 13.594-30.992 20.535-48.95 19.75l-13.573-24.024-28.38-50.207 60.727-34.32 60.723-34.328c3.023 5.352-10.813-19.129 28.879 51.094zm0 0" opacity="1" data-original="#127d4f"></path><path fill="#1ed688" d="M387.398 310.336c-25.117-1.332-46.261 19.441-44.964 44.965 1.988 40.5-47.684 60.652-74.559 30.883-8.504-9.418-20.148-14.133-31.793-14.133-11.64 0-23.289 4.715-31.793 14.133-27 29.91-76.617 9.367-74.559-30.883 1.34-25.113-19.44-46.262-44.96-44.965-40.504 1.984-60.657-47.684-30.887-74.559 18.847-17.015 18.84-46.578 0-63.586-29.918-27.02-9.352-76.62 30.887-74.558 25.113 1.336 46.257-19.442 44.96-44.961-1.98-40.402 47.614-60.727 74.56-30.887 17.015 18.848 46.577 18.84 63.585 0 27.023-29.918 76.625-9.355 74.559 30.887-1.332 25.113 19.441 46.258 44.964 44.96 40.5-1.984 60.653 47.688 30.883 74.56-18.847 17.015-18.836 46.578 0 63.585 29.922 27.02 9.356 76.625-30.883 74.559zm0 0" opacity="1" data-original="#1ed688" class=""></path><path fill="#35e298" d="M387.398 310.336c-25.117-1.332-46.261 19.441-44.964 44.965 1.988 40.5-47.684 60.652-74.559 30.883-8.504-9.418-20.148-14.133-31.793-14.133-11.64 0-23.289 4.715-31.793 14.133-4.656 5.16-9.984 8.816-15.605 11.125-15.829-6.274-28.059-21.61-27.016-42.008 1.336-25.117-19.441-46.262-44.961-44.965-40.504 1.984-60.656-47.684-30.887-74.559 9.418-8.504 14.125-20.152 14.125-31.793s-4.707-23.289-14.125-31.793c-29.918-27.02-9.355-76.62 30.887-74.558 25.113 1.336 46.258-19.442 44.961-44.961-.809-14.711 6.285-32.168 13.77-45.043 10.316.621 20.628 5.047 28.851 14.156 17.016 18.848 46.578 18.84 63.586 0 27.023-29.918 76.625-9.355 74.559 30.887-1.332 25.113 19.441 46.258 44.964 44.96 40.5-1.984 60.653 47.688 30.883 74.56-18.847 17.015-18.836 46.578 0 63.585 29.922 27.02 9.356 76.625-30.883 74.559zm0 0" opacity="1" data-original="#35e298" class=""></path><path fill="#169b62" d="M373.613 203.988c0 68.52-50.12 125.348-115.699 135.801a137.754 137.754 0 0 1-21.832 1.73c-75.95 0-137.531-61.581-137.531-137.53 0-75.954 61.582-137.536 137.535-137.536 7.426 0 14.723.59 21.832 1.73 65.574 10.454 115.695 67.282 115.695 135.805zm0 0" opacity="1" data-original="#169b62" class=""></path><path fill="#1ab975" d="M373.613 203.988c0 68.52-50.12 125.348-115.699 135.801-65.582-10.453-115.7-67.277-115.7-135.8 0-68.524 50.118-125.352 115.704-135.805 65.574 10.453 115.695 67.28 115.695 135.804zm0 0" opacity="1" data-original="#1ab975" class=""></path><path fill="#ffd993" d="M327.82 204.324v49.434c0 21.254-17.39 38.644-38.644 38.644h-76.164c-10.008 0-18.196-8.187-18.196-18.195V190.43c0-10.012 8.188-18.2 18.196-18.2h16.59a5.354 5.354 0 0 0 4.14-1.957l39.04-47.125c6.702-8.14 18.613-10.093 27.253-4.054 9.668 6.754 11.38 20.289 4.024 29.222l-12.524 15.2c-2.808 3.511-.308 8.714 4.192 8.714 17.722 0 32.093 14.372 32.093 32.094zm0 0" opacity="1" data-original="#ffd993"></path><path fill="#ffa90b" d="M144.348 276.832v-91.543c0-6.305 5.113-11.418 11.418-11.418h25.539c7.433 0 13.511 6.082 13.511 13.512v87.36c0 7.429-6.082 13.507-13.511 13.507h-25.54c-6.304.004-11.417-5.11-11.417-11.418zm0 0" opacity="1" data-original="#ffa90b"></path><path d="M101.05 231.273a7.537 7.537 0 0 0-5.41 9.192c16.563 63.937 74.317 108.59 140.442 108.59 79.996 0 145.074-65.078 145.074-145.07s-65.082-145.07-145.074-145.07c-81.543 0-147.793 67.702-144.984 150.132.144 4.164 3.648 7.433 7.797 7.281a7.542 7.542 0 0 0 7.277-7.797c-2.535-73.875 56.863-134.535 129.91-134.535 71.676 0 129.988 58.313 129.988 129.988s-58.312 129.989-129.988 129.989c-59.254 0-111.004-40.008-125.844-97.29a7.54 7.54 0 0 0-9.187-5.41zm0 0" fill="#000000" opacity="1" data-original="#000000" class=""></path><path d="M304.645 112.5c-11.93-8.34-28.657-5.906-38.055 5.52l-38.246 46.168h-15.332c-6.801 0-13.008 2.601-17.676 6.863-3.774-3.246-8.672-5.223-14.031-5.223h-25.54c-10.73 0-19.46 8.73-19.46 19.461v91.543c0 10.73 8.73 19.465 19.46 19.465h25.54c4.715 0 9.066-1.54 12.617-4.117 4.789 5.082 11.574 8.265 19.09 8.265h76.16c25.746 0 46.691-20.945 46.691-46.691v-49.43c0-20.308-15.156-37.14-34.754-39.781l9.16-11.113c10.372-12.598 7.825-31.532-5.624-40.93zM186.773 274.742c0 2.961-2.503 5.465-5.468 5.465h-25.54a3.378 3.378 0 0 1-3.374-3.375v-91.543a3.38 3.38 0 0 1 3.375-3.375h25.539c2.965 0 5.468 2.504 5.468 5.469zm133-70.418v49.434c0 16.87-13.726 30.601-30.597 30.601h-76.164c-5.598 0-10.149-4.554-10.149-10.152V190.43c0-5.598 4.551-10.153 10.149-10.153h16.59c4.023 0 7.796-1.78 10.335-4.87l39.055-47.145c6.813-8.278 20.012-4.91 21.461 5.66 1.047 7.648-3.71 10.031-15.2 24.566-7.01 8.77-.784 21.79 10.474 21.79 13.257 0 24.046 10.785 24.046 24.046zm0 0" fill="#000000" opacity="1" data-original="#000000" class=""></path><path d="M406.11 315.29c34.5-11.634 46.917-58.321 17.226-85.106-15.59-14.106-15.414-38.465 0-52.391 10.789-9.734 16.723-22.875 16.723-37.004 0-27.95-22.668-52.305-53.043-50.687-14.59.742-28.075-7.582-34.02-20.817-1.707-3.8-6.172-5.488-9.973-3.789a7.543 7.543 0 0 0-3.78 9.973c8.476 18.875 27.753 30.781 48.534 29.695 33.094-1.95 50.188 39.125 25.453 61.426-22.125 20-22.14 54.797 0 74.785 21.887 19.758 10.997 54.258-14.722 60.473-7.09 1.734-10.797.59-16.75 1.015-26.645 1.758-48.184 24.516-46.852 52.82 1.5 33.973-39.504 49.696-61.437 25.45-19.922-22.04-54.668-22.242-74.77 0-22.047 24.37-62.937 8.43-61.441-25.45 1.328-28.855-19.625-52.82-54.903-52.82-32.168 0-47.406-39.86-23.418-61.488 22.137-19.988 22.13-54.785 0-74.785-24.75-22.313-7.68-63.348 25.45-61.426 28.941 1.469 52.941-21.648 52.941-50.27 0-1.851-.117-2.921-.117-4.632 0-22.012 18.137-35.176 35.684-35.176 6.93 0 17.035 2.043 25.804 11.758 19.985 22.133 54.793 22.125 74.77 0 20.488-22.696 56.32-10.086 60.976 17.215.696 4.101 4.594 6.855 8.7 6.16 4.101-.703 6.867-4.594 6.164-8.696-6.88-40.421-58.465-56.43-87.032-24.796-13.996 15.515-38.394 15.511-52.386 0-20.075-22.23-52.184-21.344-71.989-2.977-11.242 10.43-16.496 24.766-15.707 39.305 1.02 21.011-16.18 38.066-37.03 37.047-14.95-.817-29.15 4.746-39.31 15.695-18.457 19.902-19.164 52.023 2.977 71.996 15.426 13.934 15.582 38.289 0 52.39-10.789 9.731-16.723 22.864-16.723 36.993 0 21.039 13.223 41.125 33.95 48.113L2.739 427.31c-6.907 12.18 3.12 27.035 17.003 25.187 61.79-7.605 61.649-9.418 62.766-6.918l24.445 56.219c5.629 12.898 23.508 13.719 30.356 1.59l56.62-100.172c5.915-2.805 11.325-6.848 15.962-11.977 13.996-15.515 38.394-15.511 52.386 0 4.637 5.13 10.035 9.16 15.95 11.977l27.128 47.996c2.051 3.617 6.657 4.894 10.278 2.844 3.629-2.043 4.906-6.645 2.855-10.278l-20.254-35.836c25.024 1.473 51.809-19.464 51.809-50.226 0-2.063-.121-3.23-.121-4.645 0-19.437 15.816-35.246 35.242-35.246 1.04 0 4.2.168 5.117.11 70.223 124.39 66.285 116.84 66.285 117.718 0 .848-.761 2.075-2.16 1.891-63.465-8.344-60.851-8.184-63.008-8.184-6.765 0-12.87 4-15.566 10.207-25.71 57.29-23.602 57.356-26.203 57.356-1.965 0-.59.246-16.29-26.879-2.05-3.629-6.655-4.906-10.277-2.855-3.628 2.05-4.906 6.656-2.855 10.277l14.652 25.922c6.946 12.273 24.813 11.148 30.344-1.59 25.258-56.582 23.711-57.711 26.45-57.336 63.87 8.39 60.964 8.187 63.054 8.187 9.344 0 16.945-7.625 16.945-16.996-.004-7.832 1.047-1.015-65.543-120.363zM122.425 496.921c-2.328-.133-.227.656-26.094-57.356-2.867-6.605-9.883-11.027-17.797-10.066-62.355 7.68-61.246 9.242-62.594 7.219-1.398-2.051-2.64 3.734 65.942-118.785 29.523 1.847 41.285 17.257 40.312 36.976-.789 14.504 4.438 28.86 15.707 39.305 10.45 9.7 25.024 14.375 36.028 13.726-52.54 91.758-49.032 89.07-51.504 88.98zm0 0" fill="#000000" opacity="1" data-original="#000000" class=""></path></g></svg>