<svg xmlns="http://www.w3.org/2000/svg" version="1.1" xmlns:xlink="http://www.w3.org/1999/xlink" width="512" height="512" x="0" y="0" viewBox="0 0 100 100" style="enable-background:new 0 0 512 512" xml:space="preserve" class=""><g><path d="M88.193 72.819H11.807a6.653 6.653 0 0 1-6.645-6.645v-46.28a6.653 6.653 0 0 1 6.645-6.645h76.387a6.653 6.653 0 0 1 6.645 6.645v46.281a6.653 6.653 0 0 1-6.645 6.645zm-76.386-55.57a2.649 2.649 0 0 0-2.645 2.645v46.281a2.649 2.649 0 0 0 2.645 2.645h76.387a2.649 2.649 0 0 0 2.645-2.645V19.894a2.649 2.649 0 0 0-2.645-2.645zM76.423 86.751H23.577c-3.001 0-5.443-2.442-5.443-5.443s2.442-5.443 5.443-5.443h52.847c3.001 0 5.443 2.442 5.443 5.443s-2.442 5.443-5.443 5.443zm-52.847-6.886a1.444 1.444 0 0 0 0 2.886h52.847a1.444 1.444 0 0 0 0-2.886H23.577z" fill="#ffffff" opacity="1" data-original="#ffffff" class=""></path><path d="M43.806 59.875a5.772 5.772 0 0 1-2.893-.784 5.727 5.727 0 0 1-2.894-5.011V31.989a5.727 5.727 0 0 1 2.894-5.011 5.729 5.729 0 0 1 5.786 0L65.83 38.023c1.812 1.045 2.893 2.919 2.893 5.011s-1.082 3.965-2.893 5.011L46.699 59.09a5.773 5.773 0 0 1-2.893.785zm.009-29.679a1.83 1.83 0 0 0-.902.246 1.754 1.754 0 0 0-.893 1.547V54.08c0 .931.625 1.392.893 1.547s.98.464 1.786 0L63.83 44.582c.806-.465.893-1.237.893-1.547s-.087-1.082-.893-1.547L44.699 30.443a1.743 1.743 0 0 0-.884-.246z" fill="#ffffff" opacity="1" data-original="#ffffff" class=""></path></g></svg>