<svg xmlns="http://www.w3.org/2000/svg" version="1.1" xmlns:xlink="http://www.w3.org/1999/xlink" width="512" height="512" x="0" y="0" viewBox="0 0 512.009 512.009" style="enable-background:new 0 0 512 512" xml:space="preserve" class=""><g><path d="M255.944 15.93C114.618 15.902.028 130.446 0 271.772-.018 364.089 49.689 449.26 130.077 494.65a10.498 10.498 0 0 0 8.107 1.003 10.668 10.668 0 0 0 6.4-4.992l78.933-139.499c2.895-5.126 1.091-11.628-4.032-14.528-35.954-20.194-48.73-65.712-28.535-101.666s65.712-48.73 101.666-28.535 48.73 65.712 28.535 101.666a74.662 74.662 0 0 1-28.535 28.535c-5.123 2.9-6.927 9.402-4.032 14.528l78.72 139.499a10.667 10.667 0 0 0 6.4 5.013 10.24 10.24 0 0 0 2.859.405c1.84-.002 3.648-.48 5.248-1.387 123.087-69.444 166.573-225.522 97.129-348.61C433.548 65.629 348.319 15.884 255.944 15.93z" style="" fill="#4caf50" data-original="#4caf50" class=""></path></g></svg>