<svg xmlns="http://www.w3.org/2000/svg" version="1.1" xmlns:xlink="http://www.w3.org/1999/xlink" width="512" height="512" x="0" y="0" viewBox="0 0 512 512" style="enable-background:new 0 0 512 512" xml:space="preserve" class=""><g><path d="M256 0C114.833 0 0 114.844 0 256s114.833 256 256 256 256-114.844 256-256S397.167 0 256 0zm0 490.667C126.604 490.667 21.333 385.396 21.333 256S126.604 21.333 256 21.333 490.667 126.604 490.667 256 385.396 490.667 256 490.667z" fill="#ffffff" opacity="1" data-original="#000000" class=""></path><path d="m357.771 247.031-149.333-96c-3.271-2.135-7.5-2.25-10.875-.396A10.653 10.653 0 0 0 192 160v192c0 3.906 2.125 7.49 5.563 9.365a10.68 10.68 0 0 0 5.104 1.302c2 0 4.021-.563 5.771-1.698l149.333-96c3.042-1.958 4.896-5.344 4.896-8.969s-1.854-7.01-4.896-8.969zm-144.438 85.427V179.542L332.271 256l-118.938 76.458z" fill="#ffffff" opacity="1" data-original="#000000" class=""></path></g></svg>