<svg xmlns="http://www.w3.org/2000/svg" version="1.1" xmlns:xlink="http://www.w3.org/1999/xlink" width="512" height="512" x="0" y="0" viewBox="0 0 24 24" style="enable-background:new 0 0 512 512" xml:space="preserve" class=""><g><linearGradient id="a" x1="12.672" x2="12.672" y1="2.328" y2="21.672" gradientUnits="userSpaceOnUse"><stop stop-opacity="1" stop-color="#ff5e5e" offset="0"></stop><stop stop-opacity="1" stop-color="#5effad" offset="1"></stop></linearGradient><path fill="url(#a)" fill-rule="evenodd" d="M5.232 3.768a1.5 1.5 0 0 0-2.121 0l-.172.171a1.5 1.5 0 0 0 0 2.122L8.88 12l-5.94 5.94a1.5 1.5 0 0 0 0 2.12l.172.172a1.5 1.5 0 0 0 2.121 0l6.997-6.997.175-.174a1.5 1.5 0 0 0 0-2.121zM2.404 3.06a2.5 2.5 0 0 1 3.535 0l7.172 7.171a2.5 2.5 0 0 1 0 3.536l-.172.171-.003.004-6.997 6.996a2.5 2.5 0 0 1-3.535 0l-.172-.171a2.5 2.5 0 0 1 0-3.536L7.464 12 2.232 6.768a2.5 2.5 0 0 1 0-3.536zm.95 5.585a.5.5 0 1 0-.708.708l2.293 2.292a.5.5 0 0 1 0 .708l-2.293 2.292a.5.5 0 0 0 .708.708l2.292-2.293a1.5 1.5 0 0 0 0-2.122zm10 0a.5.5 0 0 0-.708.708l2.293 2.292a.5.5 0 0 1 0 .708l-2.293 2.292a.5.5 0 0 0 .708.708l2.292-2.293a1.5 1.5 0 0 0 0-2.122zm-.243-4.878a1.5 1.5 0 0 1 2.121 0l7.172 7.171a1.5 1.5 0 0 1 0 2.122l-.175.174-6.997 6.997a1.5 1.5 0 0 1-2.121 0l-.172-.171a1.5 1.5 0 0 1 0-2.122L18.88 12l-5.94-5.94a1.5 1.5 0 0 1 0-2.12zm2.828-.707a2.5 2.5 0 0 0-3.535 0l-.172.171a2.5 2.5 0 0 0 0 3.536L17.465 12l-5.233 5.232a2.5 2.5 0 0 0 0 3.536l.172.171a2.5 2.5 0 0 0 3.535 0l6.997-6.997.003-.003.172-.171a2.5 2.5 0 0 0 0-3.536z" clip-rule="evenodd" opacity="1" data-original="url(#a)" class=""></path></g></svg>